#!OML:ASF H:\Terrain\Patient Classification 1\Walking\liu\liu.ASF
:FULLY-SPECIFIED
:DEGREES
164
root 0.021 15.8835 34.0776 7.35409 0.1524 -2.31207
lowerback -3.44698 1.59607 -0.861427
upperback 0.30709 2.10978 2.511
thorax 2.12176 1.02999 3.17525
lowerneck -22.5881 -5.12617 -12.5355
upperneck 21.0109 -6.10123 12.4842
head 11.3716 -2.26442 5.72934
rclavicle -2.48978e-014 -2.78299e-015
rhumerus -29.8057 20.0142 -85.7649
rradius 45.7778
rwrist -20.2749
rhand -32.3043 -26.2183
rfingers 7.12502
rthumb -5.54256 -56.1258
lclavicle -2.48978e-014 -2.78299e-015
lhumerus -51.7321 0.55394 83.5114
lradius 20.5168
lwrist -4.47355
lhand -8.69102 -21.216
lfingers 7.12502
lthumb 17.2438 8.03889
rfemur 6.13342 -1.58785 21.4547
rtibia 36.8322
rfoot 13.7981 4.47181
rtoes -6.82819
lfemur -38.3937 4.64723 -22.1371
ltibia 34.9871
lfoot -3.90111 3.96378
ltoes 3.32465
165
root 0.021 15.9067 34.2783 7.27132 0.1524 -1.47834
lowerback -3.45437 1.53594 -1.57986
upperback 0.309878 2.06491 2.28073
thorax 2.11475 1.00074 3.33983
lowerneck -22.5211 -5.08002 -12.415
upperneck 20.9259 -6.01277 12.2415
head 11.2998 -2.24533 5.62532
rclavicle 2.20651e-014 -1.59028e-014
rhumerus -30.2778 19.5639 -85.9396
rradius 45.6466
rwrist -20.5018
rhand -31.9069 -26.9538
rfingers 7.12502
rthumb -5.15887 -56.871
lclavicle 2.20651e-014 -1.59028e-014
lhumerus -51.032 0.571621 83.603
lradius 20.3976
lwrist -4.3963
lhand -8.96441 -21.4619
lfingers 7.12502
lthumb 16.9807 7.81588
rfemur 4.45588 -1.84494 20.3256
rtibia 40.4234
rfoot 14.3718 3.86296
rtoes -8.44632
lfemur -37.4758 4.63144 -23.1954
ltibia 34.7612
lfoot -4.57912 3.84662
ltoes 2.88584
166
root 0.0211 15.9251 34.4789 7.05558 0.1524 -0.581696
lowerback -3.07376 1.47218 -2.48447
upperback 0.181919 2.01513 2.15304
thorax 1.74681 0.9752 3.69983
lowerneck -22.3424 -5.03912 -12.6188
upperneck 20.9742 -5.87023 12.0996
head 11.2638 -2.2204 5.63104
rclavicle 2.33572e-014 2.38542e-015
rhumerus -31.1116 19.3967 -86.0719
rradius 45.6399
rwrist -20.8363
rhand -31.7452 -28.7053
rfingers 7.12502
rthumb -5.00273 -58.6262
lclavicle 2.33572e-014 2.38542e-015
lhumerus -50.4693 0.874519 83.657
lradius 20.1039
lwrist -4.63213
lhand -9.22623 -22.3639
lfingers 7.12502
lthumb 16.7287 6.93534
rfemur 2.84234 -2.0333 19.1914
rtibia 43.966
rfoot 15.03 3.03619
rtoes -8.74711
lfemur -36.343 4.5726 -24.2649
ltibia 34.343
lfoot -5.28678 3.77186
ltoes 2.72608
167
root 0.0211 15.9578 34.6795 6.89478 0.1524 0.37274
lowerback -2.6553 1.34061 -3.49998
upperback -0.0824621 1.86669 2.02018
thorax 1.22468 0.909159 4.11189
lowerneck -22.3105 -4.89286 -12.8585
upperneck 21.3956 -5.65548 12.2359
head 11.3957 -2.13014 5.77981
rclavicle -1.74931e-014 -2.06736e-014
rhumerus -32.0349 19.2358 -86.2564
rradius 45.3383
rwrist -20.9742
rhand -31.7448 -28.6187
rfingers 7.12502
rthumb -5.00231 -58.5397
lclavicle -1.74931e-014 -2.06736e-014
lhumerus -50.3307 0.872069 83.9193
lradius 20.1957
lwrist -4.85287
lhand -9.75687 -22.733
lfingers 7.12502
lthumb 16.2178 6.60862
rfemur 1.16288 -2.33495 18.0183
rtibia 47.3971
rfoot 16.0208 1.94083
rtoes -7.3969
lfemur -35.1788 4.53049 -25.4508
ltibia 33.7836
lfoot -5.78701 3.62266
ltoes 1.4168
168
root 0.0211 15.9919 34.8802 6.92751 0.1524 1.08391
lowerback -2.67028 1.16564 -4.10689
upperback -0.196591 1.6541 1.81075
thorax 1.12532 0.804493 4.22977
lowerneck -22.3626 -4.70393 -12.6488
upperneck 21.6036 -5.48864 12.2936
head 11.4537 -2.02956 5.80401
rclavicle -8.64713e-015 1.03368e-014
rhumerus -32.0233 18.8702 -86.5299
rradius 44.163
rwrist -20.9091
rhand -31.8895 -27.21
rfingers 7.12502
rthumb -5.14208 -57.1276
lclavicle -8.64713e-015 1.03368e-014
lhumerus -49.9328 0.398809 84.3193
lradius 20.4993
lwrist -4.53097
lhand -10.3465 -22.8957
lfingers 7.12502
lthumb 15.6499 6.49133
rfemur -0.713739 -2.69966 17.1672
rtibia 50.6786
rfoot 16.5205 0.412782
rtoes -7.78211
lfemur -34.175 4.45212 -26.3722
ltibia 33.184
lfoot -5.92402 3.4992
ltoes 0.84041
169
root 0.0212 16.0227 35.0808 6.89905 0.1524 1.5361
lowerback -2.79329 1.13374 -4.37255
upperback -0.0422326 1.62934 1.57675
thorax 1.35539 0.782007 4.14223
lowerneck -22.5481 -4.73488 -12.5726
upperneck 21.4218 -5.5531 12.4103
head 11.4327 -2.03166 5.81855
rclavicle -3.37934e-015 -2.18663e-014
rhumerus -31.2887 18.0146 -86.632
rradius 42.7874
rwrist -20.6362
rhand -31.9636 -26.2226
rfingers 7.12502
rthumb -5.21356 -56.1385
lclavicle -3.37934e-015 -2.18663e-014
lhumerus -48.9166 -0.296776 84.6659
lradius 20.76
lwrist -4.09579
lhand -10.5402 -23.1371
lfingers 7.12502
lthumb 15.4634 6.26439
rfemur -2.60664 -2.87087 16.6558
rtibia 53.7927
rfoot 16.6025 -1.92278
rtoes -7.982
lfemur -33.135 4.4166 -26.9455
ltibia 32.6678
lfoot -6.15135 3.46483
ltoes 1.81076
170
root 0.0212 16.0573 35.2815 6.70415 0.1524 1.81128
lowerback -2.76391 1.09691 -4.53152
upperback 0.187459 1.58907 1.44735
thorax 1.5793 0.750456 4.09946
lowerneck -22.7957 -4.7447 -12.7061
upperneck 21.2918 -5.53818 12.6343
head 11.4415 -2.00115 5.92783
rclavicle -2.13694e-015 -4.37326e-015
rhumerus -31.199 17.2194 -86.6081
rradius 42.3347
rwrist -20.3055
rhand -31.5756 -25.476
rfingers 7.12502
rthumb -4.83895 -55.4008
lclavicle -2.13694e-015 -4.37326e-015
lhumerus -47.7143 -0.488088 84.6743
lradius 20.7737
lwrist -4.12576
lhand -10.4099 -23.3225
lfingers 7.12502
lthumb 15.5889 6.06928
rfemur -4.30513 -2.96375 16.3963
rtibia 56.653
rfoot 16.5373 -4.64939
rtoes -6.33517
lfemur -32.0051 4.43999 -27.3087
ltibia 32.2946
lfoot -6.67434 3.44584
ltoes 2.33992
171
root 0.0212 16.0863 35.4821 6.62925 0.1524 1.83796
lowerback -2.77441 0.946238 -4.53993
upperback 0.287214 1.38964 1.47718
thorax 1.70794 0.645048 4.12985
lowerneck -23.045 -4.53428 -12.2815
upperneck 21.5306 -5.33887 12.4717
head 11.5296 -1.88812 5.83672
rclavicle 8.64713e-015 7.95139e-015
rhumerus -31.718 16.9664 -86.6521
rradius 42.2155
rwrist -20.151
rhand -31.2636 -25.3536
rfingers 7.12502
rthumb -4.53765 -55.285
lclavicle 8.64713e-015 7.95139e-015
lhumerus -46.8083 -0.48448 84.7374
lradius 20.8185
lwrist -4.13506
lhand -10.5231 -23.4253
lfingers 7.12502
lthumb 15.4798 5.97493
rfemur -5.97318 -3.14646 16.4791
rtibia 59.1705
rfoot 15.7694 -6.98456
rtoes -3.76268
lfemur -31.1021 4.483 -27.4055
ltibia 32.0812
lfoot -7.52042 3.37188
ltoes 2.28514
172
root 0.0213 16.113 35.6827 6.69187 0.1524 1.68843
lowerback -2.87112 0.852769 -4.28506
upperback 0.302462 1.26016 1.49142
thorax 1.7964 0.580063 3.99803
lowerneck -22.1235 -4.7781 -11.6671
upperneck 20.341 -5.50687 10.9745
head 10.865 -2.11616 5.07275
rclavicle -1.26725e-014 -7.15625e-015
rhumerus -32.2606 16.4353 -86.7589
rradius 41.8506
rwrist -19.9076
rhand -30.78 -25.0589
rfingers 7.12502
rthumb -4.07069 -54.9998
lclavicle -1.26725e-014 -7.15625e-015
lhumerus -45.8633 -0.488769 84.6848
lradius 20.6941
lwrist -4.47859
lhand -10.7522 -23.6475
lfingers 7.12502
lthumb 15.2592 5.76963
rfemur -7.63397 -3.29756 16.7835
rtibia 61.3096
rfoot 13.9707 -9.18901
rtoes 0.316473
lfemur -30.3967 4.64415 -27.3395
ltibia 31.9882
lfoot -8.60001 3.23568
ltoes 1.47974
173
root 0.0213 16.1339 35.8834 6.79824 0.1524 1.42958
lowerback -3.06673 0.777176 -3.87989
upperback 0.30648 1.15127 1.53797
thorax 1.92791 0.526216 3.81696
lowerneck -23.2234 -4.43464 -12.1006
upperneck 21.6835 -5.17675 12.1874
head 11.5818 -1.82981 5.72921
rclavicle -8.34896e-015 -1.31198e-014
rhumerus -32.7372 15.9325 -86.8458
rradius 41.3359
rwrist -19.7422
rhand -30.0919 -23.7329
rfingers 7.12502
rthumb -3.40624 -53.6854
lclavicle -8.34896e-015 -1.31198e-014
lhumerus -44.7497 -0.40327 84.5797
lradius 20.3859
lwrist -4.92601
lhand -10.7944 -23.9615
lfingers 7.12502
lthumb 15.2185 5.45881
rfemur -9.20249 -3.43064 17.2465
rtibia 63.1214
rfoot 11.7708 -10.7643
rtoes 3.05748
lfemur -29.7192 4.79831 -27.1447
ltibia 31.8483
lfoot -9.53521 3.10065
ltoes 1.59991
